<?xml version="1.0" encoding="utf-8"?>
 <!DOCTYPE svg PUBLIC "-//W3C//DTD SVG 20010904//EN" "http://www.w3.org/TR/2001/REC-SVG-20010904/DTD/svg10.dtd">
<svg class="Qr-item-svg" width="100%" height="100%" viewBox="-4.2 -4.2 29.4 29.4" fill="white" xmlns="http://www.w3.org/2000/svg" xmlns:xlink="http://www.w3.org/1999/xlink"><rect width="1" height="1" fill="#000000" x="0" y="0"></rect><rect width="1" height="1" fill="#000000" x="0" y="1"></rect><rect width="1" height="1" fill="#000000" x="0" y="2"></rect><rect width="1" height="1" fill="#000000" x="0" y="3"></rect><rect width="1" height="1" fill="#000000" x="0" y="4"></rect><rect width="1" height="1" fill="#000000" x="0" y="5"></rect><rect width="1" height="1" fill="#000000" x="0" y="6"></rect><rect opacity="1" width="1" height="1" fill="#000000" x="0" y="9"></rect><rect opacity="1" width="1" height="1" fill="#000000" x="0" y="10"></rect><rect opacity="1" width="1" height="1" fill="#000000" x="0" y="11"></rect><rect width="1" height="1" fill="#000000" x="0" y="14"></rect><rect width="1" height="1" fill="#000000" x="0" y="15"></rect><rect width="1" height="1" fill="#000000" x="0" y="16"></rect><rect width="1" height="1" fill="#000000" x="0" y="17"></rect><rect width="1" height="1" fill="#000000" x="0" y="18"></rect><rect width="1" height="1" fill="#000000" x="0" y="19"></rect><rect width="1" height="1" fill="#000000" x="0" y="20"></rect><rect width="1" height="1" fill="#000000" x="1" y="0"></rect><rect width="1" height="1" fill="#000000" x="1" y="6"></rect><rect width="1" height="1" fill="#000000" x="1" y="9" opacity="1"></rect><rect opacity="1" width="1" height="1" fill="#000000" x="1" y="11"></rect><rect width="1" height="1" fill="#000000" x="1" y="14"></rect><rect width="1" height="1" fill="#000000" x="1" y="20"></rect><rect width="1" height="1" fill="#000000" x="2" y="0"></rect><rect width="1" height="1" fill="#000000" x="2" y="2"></rect><rect width="1" height="1" fill="#000000" x="2" y="3"></rect><rect width="1" height="1" fill="#000000" x="2" y="4"></rect><rect width="1" height="1" fill="#000000" x="2" y="6"></rect><rect width="1" height="1" fill="#000000" x="2" y="8" opacity="1"></rect><rect width="1" height="1" fill="#000000" x="2" y="9" opacity="1"></rect><rect width="1" height="1" fill="#000000" x="2" y="14"></rect><rect width="1" height="1" fill="#000000" x="2" y="16"></rect><rect width="1" height="1" fill="#000000" x="2" y="17"></rect><rect width="1" height="1" fill="#000000" x="2" y="18"></rect><rect width="1" height="1" fill="#000000" x="2" y="20"></rect><rect width="1" height="1" fill="#000000" x="3" y="0"></rect><rect width="1" height="1" fill="#000000" x="3" y="2"></rect><rect width="1" height="1" fill="#000000" x="3" y="3"></rect><rect width="1" height="1" fill="#000000" x="3" y="4"></rect><rect width="1" height="1" fill="#000000" x="3" y="6"></rect><rect width="1" height="1" fill="#000000" x="3" y="8" opacity="1"></rect><rect width="1" height="1" fill="#000000" x="3" y="9" opacity="1"></rect><rect width="1" height="1" fill="#000000" x="3" y="11" opacity="1"></rect><rect width="1" height="1" fill="#000000" x="3" y="12" opacity="1"></rect><rect width="1" height="1" fill="#000000" x="3" y="14"></rect><rect width="1" height="1" fill="#000000" x="3" y="16"></rect><rect width="1" height="1" fill="#000000" x="3" y="17"></rect><rect width="1" height="1" fill="#000000" x="3" y="18"></rect><rect width="1" height="1" fill="#000000" x="3" y="20"></rect><rect width="1" height="1" fill="#000000" x="4" y="0"></rect><rect width="1" height="1" fill="#000000" x="4" y="2"></rect><rect width="1" height="1" fill="#000000" x="4" y="3"></rect><rect width="1" height="1" fill="#000000" x="4" y="4"></rect><rect width="1" height="1" fill="#000000" x="4" y="6"></rect><rect width="1" height="1" fill="#000000" x="4" y="8" opacity="1"></rect><rect width="1" height="1" fill="#000000" x="4" y="9" opacity="1"></rect><rect width="1" height="1" fill="#000000" x="4" y="12" opacity="1"></rect><rect width="1" height="1" fill="#000000" x="4" y="14"></rect><rect width="1" height="1" fill="#000000" x="4" y="16"></rect><rect width="1" height="1" fill="#000000" x="4" y="17"></rect><rect width="1" height="1" fill="#000000" x="4" y="18"></rect><rect width="1" height="1" fill="#000000" x="4" y="20"></rect><rect width="1" height="1" fill="#000000" x="5" y="0"></rect><rect width="1" height="1" fill="#000000" x="5" y="6"></rect><rect opacity="1" width="1" height="1" fill="#000000" x="5" y="8"></rect><rect opacity="1" width="1" height="1" fill="#000000" x="5" y="10"></rect><rect width="1" height="1" fill="#000000" x="5" y="11" opacity="1"></rect><rect width="1" height="1" fill="#000000" x="5" y="14"></rect><rect width="1" height="1" fill="#000000" x="5" y="20"></rect><rect width="1" height="1" fill="#000000" x="6" y="0"></rect><rect width="1" height="1" fill="#000000" x="6" y="1"></rect><rect width="1" height="1" fill="#000000" x="6" y="2"></rect><rect width="1" height="1" fill="#000000" x="6" y="3"></rect><rect width="1" height="1" fill="#000000" x="6" y="4"></rect><rect width="1" height="1" fill="#000000" x="6" y="5"></rect><rect width="1" height="1" fill="#000000" x="6" y="6"></rect><rect width="1" height="1" fill="#000000" x="6" y="8" opacity="1"></rect><rect width="1" height="1" fill="#000000" x="6" y="10" opacity="1"></rect><rect width="1" height="1" fill="#000000" x="6" y="12" opacity="1"></rect><rect width="1" height="1" fill="#000000" x="6" y="14"></rect><rect width="1" height="1" fill="#000000" x="6" y="15"></rect><rect width="1" height="1" fill="#000000" x="6" y="16"></rect><rect width="1" height="1" fill="#000000" x="6" y="17"></rect><rect width="1" height="1" fill="#000000" x="6" y="18"></rect><rect width="1" height="1" fill="#000000" x="6" y="19"></rect><rect width="1" height="1" fill="#000000" x="6" y="20"></rect><rect opacity="1" width="1" height="1" fill="#000000" x="7" y="8"></rect><rect opacity="1" width="1" height="1" fill="#000000" x="7" y="9"></rect><rect opacity="1" width="1" height="1" fill="#000000" x="7" y="10"></rect><rect opacity="1" width="1" height="1" fill="#000000" x="8" y="0"></rect><rect width="1" height="1" fill="#000000" x="8" y="2" opacity="1"></rect><rect width="1" height="1" fill="#000000" x="8" y="3" opacity="1"></rect><rect width="1" height="1" fill="#000000" x="8" y="4" opacity="1"></rect><rect width="1" height="1" fill="#000000" x="8" y="5" opacity="1"></rect><rect width="1" height="1" fill="#000000" x="8" y="6" opacity="1"></rect><rect width="1" height="1" fill="#000000" x="8" y="11" opacity="1"></rect><rect width="1" height="1" fill="#000000" x="8" y="14" opacity="1"></rect><rect opacity="1" width="1" height="1" fill="#000000" x="8" y="15"></rect><rect opacity="1" width="1" height="1" fill="#000000" x="8" y="16"></rect><rect opacity="1" width="1" height="1" fill="#000000" x="8" y="17"></rect><rect opacity="1" width="1" height="1" fill="#000000" x="8" y="18"></rect><rect opacity="1" width="1" height="1" fill="#000000" x="9" y="2"></rect><rect opacity="1" width="1" height="1" fill="#000000" x="9" y="3"></rect><rect opacity="1" width="1" height="1" fill="#000000" x="9" y="8"></rect><rect opacity="1" width="1" height="1" fill="#000000" x="9" y="9"></rect><rect opacity="1" width="1" height="1" fill="#000000" x="9" y="10"></rect><rect opacity="1" width="1" height="1" fill="#000000" x="9" y="11"></rect><rect opacity="1" width="1" height="1" fill="#000000" x="9" y="12"></rect><rect opacity="1" width="1" height="1" fill="#000000" x="9" y="13"></rect><rect opacity="1" width="1" height="1" fill="#000000" x="9" y="14"></rect><rect opacity="1" width="1" height="1" fill="#000000" x="9" y="15"></rect><rect opacity="1" width="1" height="1" fill="#000000" x="9" y="18"></rect><rect opacity="1" width="1" height="1" fill="#000000" x="9" y="19"></rect><rect opacity="1" width="1" height="1" fill="#000000" x="9" y="20"></rect><rect opacity="1" width="1" height="1" fill="#000000" x="10" y="1"></rect><rect opacity="1" width="1" height="1" fill="#000000" x="10" y="4"></rect><rect opacity="1" width="1" height="1" fill="#000000" x="10" y="6"></rect><rect opacity="1" width="1" height="1" fill="#000000" x="10" y="7"></rect><rect opacity="1" width="1" height="1" fill="#000000" x="10" y="9"></rect><rect opacity="1" width="1" height="1" fill="#000000" x="10" y="12"></rect><rect opacity="1" width="1" height="1" fill="#000000" x="10" y="14"></rect><rect opacity="1" width="1" height="1" fill="#000000" x="10" y="15"></rect><rect opacity="1" width="1" height="1" fill="#000000" x="10" y="19"></rect><rect opacity="1" width="1" height="1" fill="#000000" x="11" y="0"></rect><rect opacity="1" width="1" height="1" fill="#000000" x="11" y="2"></rect><rect opacity="1" width="1" height="1" fill="#000000" x="11" y="4"></rect><rect opacity="1" width="1" height="1" fill="#000000" x="11" y="5"></rect><rect opacity="1" width="1" height="1" fill="#000000" x="11" y="7"></rect><rect opacity="1" width="1" height="1" fill="#000000" x="11" y="8"></rect><rect opacity="1" width="1" height="1" fill="#000000" x="11" y="10"></rect><rect opacity="1" width="1" height="1" fill="#000000" x="11" y="11"></rect><rect opacity="1" width="1" height="1" fill="#000000" x="11" y="12"></rect><rect opacity="1" width="1" height="1" fill="#000000" x="11" y="13"></rect><rect opacity="1" width="1" height="1" fill="#000000" x="11" y="14"></rect><rect opacity="1" width="1" height="1" fill="#000000" x="11" y="15"></rect><rect opacity="1" width="1" height="1" fill="#000000" x="11" y="18"></rect><rect opacity="1" width="1" height="1" fill="#000000" x="11" y="19"></rect><rect opacity="1" width="1" height="1" fill="#000000" x="12" y="0"></rect><rect opacity="1" width="1" height="1" fill="#000000" x="12" y="2"></rect><rect opacity="1" width="1" height="1" fill="#000000" x="12" y="6"></rect><rect opacity="1" width="1" height="1" fill="#000000" x="12" y="7"></rect><rect opacity="1" width="1" height="1" fill="#000000" x="12" y="8"></rect><rect opacity="1" width="1" height="1" fill="#000000" x="12" y="12"></rect><rect opacity="1" width="1" height="1" fill="#000000" x="12" y="15"></rect><rect opacity="1" width="1" height="1" fill="#000000" x="12" y="17"></rect><rect opacity="1" width="1" height="1" fill="#000000" x="13" y="8"></rect><rect opacity="1" width="1" height="1" fill="#000000" x="13" y="10"></rect><rect opacity="1" width="1" height="1" fill="#000000" x="13" y="12"></rect><rect opacity="1" width="1" height="1" fill="#000000" x="13" y="16"></rect><rect opacity="1" width="1" height="1" fill="#000000" x="13" y="17"></rect><rect opacity="1" width="1" height="1" fill="#000000" x="13" y="18"></rect><rect opacity="1" width="1" height="1" fill="#000000" x="13" y="19"></rect><rect opacity="1" width="1" height="1" fill="#000000" x="13" y="20"></rect><rect width="1" height="1" fill="#000000" x="14" y="0"></rect><rect width="1" height="1" fill="#000000" x="14" y="1"></rect><rect width="1" height="1" fill="#000000" x="14" y="2"></rect><rect width="1" height="1" fill="#000000" x="14" y="3"></rect><rect width="1" height="1" fill="#000000" x="14" y="4"></rect><rect width="1" height="1" fill="#000000" x="14" y="5"></rect><rect width="1" height="1" fill="#000000" x="14" y="6"></rect><rect opacity="1" width="1" height="1" fill="#000000" x="14" y="9"></rect><rect opacity="1" width="1" height="1" fill="#000000" x="14" y="10"></rect><rect opacity="1" width="1" height="1" fill="#000000" x="14" y="11"></rect><rect opacity="1" width="1" height="1" fill="#000000" x="14" y="13"></rect><rect opacity="1" width="1" height="1" fill="#000000" x="14" y="17"></rect><rect opacity="1" width="1" height="1" fill="#000000" x="14" y="18"></rect><rect opacity="1" width="1" height="1" fill="#000000" x="14" y="19"></rect><rect width="1" height="1" fill="#000000" x="15" y="0"></rect><rect width="1" height="1" fill="#000000" x="15" y="6"></rect><rect opacity="1" width="1" height="1" fill="#000000" x="15" y="8"></rect><rect opacity="1" width="1" height="1" fill="#000000" x="15" y="9"></rect><rect opacity="1" width="1" height="1" fill="#000000" x="15" y="10"></rect><rect opacity="1" width="1" height="1" fill="#000000" x="15" y="15"></rect><rect opacity="1" width="1" height="1" fill="#000000" x="15" y="18"></rect><rect opacity="1" width="1" height="1" fill="#000000" x="15" y="19"></rect><rect opacity="1" width="1" height="1" fill="#000000" x="15" y="20"></rect><rect width="1" height="1" fill="#000000" x="16" y="0"></rect><rect width="1" height="1" fill="#000000" x="16" y="2"></rect><rect width="1" height="1" fill="#000000" x="16" y="3"></rect><rect width="1" height="1" fill="#000000" x="16" y="4"></rect><rect width="1" height="1" fill="#000000" x="16" y="6"></rect><rect opacity="1" width="1" height="1" fill="#000000" x="16" y="8"></rect><rect opacity="1" width="1" height="1" fill="#000000" x="16" y="9"></rect><rect opacity="1" width="1" height="1" fill="#000000" x="16" y="11"></rect><rect opacity="1" width="1" height="1" fill="#000000" x="16" y="13"></rect><rect opacity="1" width="1" height="1" fill="#000000" x="16" y="15"></rect><rect opacity="1" width="1" height="1" fill="#000000" x="16" y="19"></rect><rect width="1" height="1" fill="#000000" x="17" y="0"></rect><rect width="1" height="1" fill="#000000" x="17" y="2"></rect><rect width="1" height="1" fill="#000000" x="17" y="3"></rect><rect width="1" height="1" fill="#000000" x="17" y="4"></rect><rect width="1" height="1" fill="#000000" x="17" y="6"></rect><rect opacity="1" width="1" height="1" fill="#000000" x="17" y="8"></rect><rect opacity="1" width="1" height="1" fill="#000000" x="17" y="11"></rect><rect opacity="1" width="1" height="1" fill="#000000" x="17" y="12"></rect><rect opacity="1" width="1" height="1" fill="#000000" x="17" y="13"></rect><rect opacity="1" width="1" height="1" fill="#000000" x="17" y="14"></rect><rect opacity="1" width="1" height="1" fill="#000000" x="17" y="16"></rect><rect opacity="1" width="1" height="1" fill="#000000" x="17" y="17"></rect><rect width="1" height="1" fill="#000000" x="18" y="0"></rect><rect width="1" height="1" fill="#000000" x="18" y="2"></rect><rect width="1" height="1" fill="#000000" x="18" y="3"></rect><rect width="1" height="1" fill="#000000" x="18" y="4"></rect><rect width="1" height="1" fill="#000000" x="18" y="6"></rect><rect opacity="1" width="1" height="1" fill="#000000" x="18" y="8"></rect><rect opacity="1" width="1" height="1" fill="#000000" x="18" y="9"></rect><rect opacity="1" width="1" height="1" fill="#000000" x="18" y="10"></rect><rect opacity="1" width="1" height="1" fill="#000000" x="18" y="12"></rect><rect opacity="1" width="1" height="1" fill="#000000" x="18" y="14"></rect><rect width="1" height="1" fill="#000000" x="19" y="0"></rect><rect width="1" height="1" fill="#000000" x="19" y="6"></rect><rect opacity="1" width="1" height="1" fill="#000000" x="19" y="11"></rect><rect opacity="1" width="1" height="1" fill="#000000" x="19" y="12"></rect><rect opacity="1" width="1" height="1" fill="#000000" x="19" y="13"></rect><rect opacity="1" width="1" height="1" fill="#000000" x="19" y="14"></rect><rect opacity="1" width="1" height="1" fill="#000000" x="19" y="17"></rect><rect opacity="1" width="1" height="1" fill="#000000" x="19" y="18"></rect><rect width="1" height="1" fill="#000000" x="20" y="0"></rect><rect width="1" height="1" fill="#000000" x="20" y="1"></rect><rect width="1" height="1" fill="#000000" x="20" y="2"></rect><rect width="1" height="1" fill="#000000" x="20" y="3"></rect><rect width="1" height="1" fill="#000000" x="20" y="4"></rect><rect width="1" height="1" fill="#000000" x="20" y="5"></rect><rect width="1" height="1" fill="#000000" x="20" y="6"></rect><rect width="1" height="1" fill="#000000" x="20" y="8" opacity="1"></rect><rect width="1" height="1" fill="#000000" x="20" y="9" opacity="1"></rect><rect width="1" height="1" fill="#000000" x="20" y="10" opacity="1"></rect><rect width="1" height="1" fill="#000000" x="20" y="12" opacity="1"></rect><rect width="1" height="1" fill="#000000" x="20" y="15" opacity="1"></rect><rect width="1" height="1" fill="#000000" x="20" y="19" opacity="1"></rect></svg>